<?xml version="1.0" standalone="no"?>
<!DOCTYPE svg PUBLIC "-//W3C//DTD SVG 20010904//EN"
 "http://www.w3.org/TR/2001/REC-SVG-20010904/DTD/svg10.dtd">
<svg version="1.0" xmlns="http://www.w3.org/2000/svg"
 width="640.000000pt" height="640.000000pt" viewBox="0 0 640.000000 640.000000"
 preserveAspectRatio="xMidYMid meet">

<g transform="translate(0.000000,640.000000) scale(0.100000,-0.100000)"
fill="#000000" stroke="none">
<path d="M2930 5369 c-497 -54 -950 -224 -1405 -524 -505 -333 -987 -827
-1372 -1405 -126 -189 -146 -226 -139 -253 7 -31 204 -329 313 -474 627 -839
1406 -1411 2189 -1607 274 -69 483 -91 764 -83 380 11 703 85 1068 242 611
265 1229 784 1728 1452 106 142 303 440 311 471 6 25 -18 68 -151 267 -428
643 -1004 1200 -1581 1527 -329 187 -691 315 -1042 368 -158 25 -539 35 -683
19z m550 -898 c388 -90 706 -339 887 -695 41 -81 94 -241 114 -341 18 -93 18
-377 0 -470 -103 -525 -499 -928 -1021 -1041 -107 -23 -389 -26 -495 -5 -267
53 -487 170 -681 365 -244 243 -366 517 -381 856 -14 311 70 587 255 838 53
73 188 208 267 266 165 124 378 212 590 246 97 15 367 4 465 -19z"/>
<path d="M3088 3929 c-158 -23 -310 -100 -428 -218 -120 -119 -193 -262 -219
-429 -15 -95 -14 -143 4 -247 52 -294 270 -530 566 -611 97 -27 290 -25 392 4
288 82 501 317 552 607 18 106 19 166 1 265 -74 410 -459 689 -868 629z"/>
</g>
</svg>
